<svg width="48" height="48" viewBox="0 0 48 48" fill="none" xmlns="http://www.w3.org/2000/svg">
<g clip-path="url(#clip0_19_2)">
<path d="M4.00006 24.16C3.98806 22.436 5.82006 21.448 7.23606 22.21L7.42606 22.326L12.7821 25.934C14.7261 27.244 13.5361 30.22 11.3141 29.948L11.0801 29.908L8.95406 29.44C10.0347 32.4297 11.9811 35.0298 14.5453 36.9089C17.1095 38.788 20.1753 39.8608 23.3516 39.9906C26.5279 40.1204 29.671 39.3013 32.38 37.6377C35.0889 35.9742 37.2411 33.5415 38.5621 30.65C38.7891 30.1792 39.1914 29.8161 39.6829 29.6382C40.1744 29.4604 40.7159 29.482 41.1917 29.6984C41.6674 29.9148 42.0395 30.3089 42.2284 30.7963C42.4172 31.2836 42.4078 31.8255 42.2021 32.306C38.2281 41.046 28.4101 45.892 18.8281 43.324C14.6005 42.1914 10.861 39.7037 8.18274 36.2422C5.50446 32.7807 4.03516 28.5365 4.00006 24.16ZM24.0001 12C24.5305 12 25.0392 12.2107 25.4143 12.5858C25.7893 12.9608 26.0001 13.4696 26.0001 14V16H30.0001C30.5305 16 31.0392 16.2107 31.4143 16.5858C31.7893 16.9608 32.0001 17.4696 32.0001 18C32.0001 18.5304 31.7893 19.0391 31.4143 19.4142C31.0392 19.7893 30.5305 20 30.0001 20H26.0001V22H28.0001C29.3261 22 30.5979 22.5268 31.5356 23.4645C32.4733 24.4021 33.0001 25.6739 33.0001 27C33.0001 28.3261 32.4733 29.5978 31.5356 30.5355C30.5979 31.4732 29.3261 32 28.0001 32H26.0001V34C26.0001 34.5304 25.7893 35.0391 25.4143 35.4142C25.0392 35.7893 24.5305 36 24.0001 36C23.4696 36 22.9609 35.7893 22.5858 35.4142C22.2108 35.0391 22.0001 34.5304 22.0001 34V32H18.0001C17.4696 32 16.9609 31.7893 16.5858 31.4142C16.2108 31.0391 16.0001 30.5304 16.0001 30C16.0001 29.4696 16.2108 28.9609 16.5858 28.5858C16.9609 28.2107 17.4696 28 18.0001 28H22.0001V26H20.0001C18.674 26 17.4022 25.4732 16.4645 24.5355C15.5268 23.5978 15.0001 22.3261 15.0001 21C15.0001 19.6739 15.5268 18.4021 16.4645 17.4645C17.4022 16.5268 18.674 16 20.0001 16H22.0001V14C22.0001 13.4696 22.2108 12.9608 22.5858 12.5858C22.9609 12.2107 23.4696 12 24.0001 12ZM28.0001 26H26.0001V28H28.0001C28.2653 28 28.5196 27.8946 28.7072 27.7071C28.8947 27.5196 29.0001 27.2652 29.0001 27C29.0001 26.7348 28.8947 26.4804 28.7072 26.2929C28.5196 26.1053 28.2653 26 28.0001 26ZM5.80606 15.704C9.78006 6.96399 19.5981 2.11999 29.1801 4.68599C33.4074 5.81823 37.1469 8.30555 39.8252 11.7667C42.5035 15.2278 43.9728 19.4718 44.0081 23.848C44.0221 25.574 42.1881 26.564 40.7741 25.8L40.5821 25.684L35.2261 22.076C33.2821 20.766 34.4721 17.79 36.6941 18.062L36.9281 18.102L39.0541 18.57C37.9735 15.5803 36.027 12.9801 33.4628 11.1011C30.8986 9.22202 27.8328 8.14919 24.6565 8.01938C21.4802 7.88957 18.3371 8.70867 15.6282 10.3722C12.9192 12.0358 10.767 14.4684 9.44606 17.36C9.3412 17.6049 9.18847 17.8264 8.99683 18.0115C8.80519 18.1966 8.5785 18.3415 8.33007 18.4378C8.08165 18.534 7.81649 18.5797 7.55018 18.572C7.28387 18.5644 7.02176 18.5036 6.77926 18.3933C6.53675 18.283 6.31873 18.1253 6.138 17.9296C5.95727 17.7338 5.81747 17.5039 5.72682 17.2534C5.63616 17.0029 5.59647 16.7368 5.61008 16.4707C5.62368 16.2046 5.69032 15.944 5.80606 15.704ZM22.0001 20H20.0001C19.7348 20 19.4805 20.1053 19.293 20.2929C19.1054 20.4804 19.0001 20.7348 19.0001 21C19.0001 21.2652 19.1054 21.5196 19.293 21.7071C19.4805 21.8946 19.7348 22 20.0001 22H22.0001V20Z" fill="#3EE44F"/>
</g>
<defs>
<clipPath id="clip0_19_2">
<rect width="48" height="48" fill="white"/>
</clipPath>
</defs>
</svg>
