<svg width="24" height="24" viewBox="0 0 24 24" fill="none" xmlns="http://www.w3.org/2000/svg">
<path d="M16.3 13.275C16.1167 13.0917 16.025 12.8583 16.025 12.575C16.025 12.2917 16.1167 12.0583 16.3 11.875L18.175 10H12C11.7167 10 11.4793 9.904 11.288 9.712C11.096 9.52067 11 9.28333 11 9C11 8.71667 11.096 8.479 11.288 8.287C11.4793 8.09567 11.7167 8 12 8H18.175L16.3 6.125C16.1167 5.94167 16.025 5.704 16.025 5.412C16.025 5.12067 16.1167 4.88333 16.3 4.7C16.4833 4.51667 16.7167 4.425 17 4.425C17.2833 4.425 17.5167 4.51667 17.7 4.7L21.3 8.3C21.4 8.4 21.471 8.50833 21.513 8.625C21.5543 8.74167 21.575 8.86667 21.575 9C21.575 9.13333 21.5543 9.25833 21.513 9.375C21.471 9.49167 21.4 9.6 21.3 9.7L17.7 13.3C17.5167 13.4833 17.2833 13.5707 17 13.562C16.7167 13.554 16.4833 13.4583 16.3 13.275ZM6.29999 19.3L2.69999 15.7C2.59999 15.6 2.52932 15.4917 2.48799 15.375C2.44599 15.2583 2.42499 15.1333 2.42499 15C2.42499 14.8667 2.44599 14.7417 2.48799 14.625C2.52932 14.5083 2.59999 14.4 2.69999 14.3L6.29999 10.7C6.48332 10.5167 6.71665 10.425 6.99999 10.425C7.28332 10.425 7.51665 10.5167 7.69999 10.7C7.88332 10.8833 7.97499 11.1207 7.97499 11.412C7.97499 11.704 7.88332 11.9417 7.69999 12.125L5.82499 14H12C12.2833 14 12.521 14.0957 12.713 14.287C12.9043 14.479 13 14.7167 13 15C13 15.2833 12.9043 15.5207 12.713 15.712C12.521 15.904 12.2833 16 12 16H5.82499L7.69999 17.875C7.88332 18.0583 7.97499 18.2917 7.97499 18.575C7.97499 18.8583 7.88332 19.0917 7.69999 19.275C7.51665 19.4583 7.28332 19.554 6.99999 19.562C6.71665 19.5707 6.48332 19.4833 6.29999 19.3Z" fill="#717987"/>
</svg>
